# xmcd CD database file
# Copyright (C) 1996 Ti Kan
#
# Track frame offsets:
#	150
#	16355
#	36461
#	52067
#	69622
#	89577
#	109532
#	128588
#	144644
#	162798
#	176303
#	192508
#	212314
#	229269
# Disc length: 3293 seconds
#
# Revision: 2
# Processed by: cddbd v1.5.1PL0 Copyright (c) Steve Scherf et al.
# Submitted via: CDCOPY 4.900
#
DISCID=c20cdb0e
DTITLE=Emerson Drive - Last One Standing
DYEAR=1900
DGENRE=
TTITLE0=last one standing
TTITLE1=lemonade
TTITLE2=if you were my girl
TTITLE3=what if
TTITLE4=i'll die trying
TTITLE5=november
TTITLE6=fishin' in the dark
TTITLE7=you're like coming home
TTITLE8=take it from me
TTITLE9=waitin' on me
TTITLE10=running back to you
TTITLE11=simple miracles
TTITLE12=still got yesterday
TTITLE13=rescued (bonus track)
EXTD=
EXTT0=
EXTT1=
EXTT2=
EXTT3=
EXTT4=
EXTT5=
EXTT6=
EXTT7=
EXTT8=
EXTT9=
EXTT10=
EXTT11=
EXTT12=
EXTT13=
PLAYORDER=
